# Blender v2.78 (sub 0) OBJ File: 'models.blend'
# www.blender.org
mtllib bullet.mtl
o Cube.010_Cube.003
v 0.055123 -0.055123 1.089645
v 0.100000 -0.055123 1.134522
v 0.055123 -0.100000 1.134522
v 0.055123 -0.055123 1.289645
v 0.055123 -0.100000 1.244767
v 0.100000 -0.055123 1.244767
v 0.055123 0.055123 1.089645
v 0.055123 0.100000 1.134522
v 0.100000 0.055123 1.134522
v 0.055123 0.055123 1.289645
v 0.100000 0.055123 1.244767
v 0.055123 0.100000 1.244767
v -0.055123 -0.055123 1.089645
v -0.100000 -0.055123 1.134522
v -0.055123 -0.100000 1.134522
v -0.055123 -0.055123 1.289645
v -0.055123 -0.100000 1.244767
v -0.100000 -0.055123 1.244767
v -0.055123 0.055123 1.089645
v -0.055123 0.100000 1.134522
v -0.100000 0.055123 1.134522
v -0.055123 0.055123 1.289645
v -0.100000 0.055123 1.244767
v -0.055123 0.100000 1.244767
v 0.000000 0.055123 1.089645
v 0.000000 0.100000 1.134522
v 0.000000 0.055123 1.289645
v 0.000000 0.100000 1.244767
v 0.000000 -0.055123 1.089645
v 0.000000 -0.100000 1.134522
v 0.000000 -0.055123 1.289645
v 0.000000 -0.100000 1.244767
vt 0.4777 0.6537
vt 0.4732 0.3463
vt 0.6358 0.4976
vt 0.6568 0.9999
vt 0.7652 0.5731
vt 0.9508 0.6262
vt 0.5485 0.2165
vt 0.3788 0.2299
vt 0.1985 0.5971
vt 0.1856 0.4269
vt 0.3151 0.5024
vt 0.7524 0.4029
vt 0.4024 0.7835
vt 0.5721 0.7701
vt 0.3288 0.9941
vt 0.2941 0.0001
vt 0.6221 0.0059
vt 0.9508 0.3409
vt 0.0001 0.6591
vt 0.4732 0.3463
vt 0.4777 0.6537
vt 0.6358 0.4976
vt 0.7652 0.5731
vt 0.5485 0.2165
vt 0.3788 0.2299
vt 0.1985 0.5971
vt 0.3151 0.5024
vt 0.1856 0.4269
vt 0.7524 0.4029
vt 0.4024 0.7835
vt 0.5721 0.7701
vt 0.0001 0.3738
vn 1.0000 0.0000 0.0000
vn 0.0000 1.0000 0.0000
vn 0.5774 -0.5773 -0.5773
vn 0.5774 -0.5774 0.5773
vn 0.5774 0.5773 -0.5773
vn 0.5774 0.5774 0.5773
vn 0.0000 0.7071 0.7071
vn 0.7071 0.7071 0.0000
vn 0.7071 0.0000 -0.7071
vn 0.7071 0.0000 0.7071
vn 0.7071 -0.7071 0.0000
vn 0.0000 -0.7071 -0.7071
vn 0.0000 0.0000 -1.0000
vn 0.0000 -0.7071 0.7071
vn 0.0000 0.7071 -0.7071
vn 0.0000 0.0000 1.0000
vn 0.0000 -1.0000 0.0000
vn -1.0000 0.0000 0.0000
vn -0.5774 -0.5773 -0.5773
vn -0.5774 -0.5774 0.5773
vn -0.5774 0.5773 -0.5773
vn -0.5774 0.5774 0.5773
vn -0.7071 0.7071 0.0000
vn -0.7071 0.0000 -0.7071
vn -0.7071 0.0000 0.7071
vn -0.7071 -0.7071 0.0000
usemtl None
s off
f 11/1/1 2/2/1 9/3/1
f 28/4/2 8/5/2 26/6/2
f 1/7/3 2/2/3 3/8/3
f 4/9/4 5/10/4 6/11/4
f 7/12/5 8/5/5 9/3/5
f 10/13/6 11/1/6 12/14/6
f 10/13/7 28/4/7 27/15/7
f 9/3/8 12/14/8 11/1/8
f 7/12/9 2/2/9 1/7/9
f 4/9/10 11/1/10 10/13/10
f 3/8/11 6/11/11 5/10/11
f 1/7/12 30/16/12 29/17/12
f 7/12/13 29/17/13 25/18/13
f 31/19/14 5/10/14 4/9/14
f 25/18/15 8/5/15 7/12/15
f 27/15/16 4/9/16 10/13/16
f 5/10/17 30/16/17 3/8/17
f 14/20/18 23/21/18 21/22/18
f 20/23/2 28/4/2 26/6/2
f 13/24/19 15/25/19 14/20/19
f 16/26/20 18/27/20 17/28/20
f 19/29/21 21/22/21 20/23/21
f 22/30/22 24/31/22 23/21/22
f 28/4/7 22/30/7 27/15/7
f 24/31/23 21/22/23 23/21/23
f 14/20/24 19/29/24 13/24/24
f 23/21/25 16/26/25 22/30/25
f 18/27/26 15/25/26 17/28/26
f 30/16/12 13/24/12 29/17/12
f 29/17/13 19/29/13 25/18/13
f 17/28/14 31/19/14 16/26/14
f 20/23/15 25/18/15 19/29/15
f 16/26/16 27/15/16 22/30/16
f 30/16/17 17/28/17 15/25/17
f 11/1/1 6/11/1 2/2/1
f 28/4/2 12/14/2 8/5/2
f 10/13/7 12/14/7 28/4/7
f 9/3/8 8/5/8 12/14/8
f 7/12/9 9/3/9 2/2/9
f 4/9/10 6/11/10 11/1/10
f 3/8/11 2/2/11 6/11/11
f 1/7/12 3/8/12 30/16/12
f 7/12/13 1/7/13 29/17/13
f 31/19/14 32/32/14 5/10/14
f 25/18/15 26/6/15 8/5/15
f 27/15/16 31/19/16 4/9/16
f 5/10/17 32/32/17 30/16/17
f 14/20/18 18/27/18 23/21/18
f 20/23/2 24/31/2 28/4/2
f 28/4/7 24/31/7 22/30/7
f 24/31/23 20/23/23 21/22/23
f 14/20/24 21/22/24 19/29/24
f 23/21/25 18/27/25 16/26/25
f 18/27/26 14/20/26 15/25/26
f 30/16/12 15/25/12 13/24/12
f 29/17/13 13/24/13 19/29/13
f 17/28/14 32/32/14 31/19/14
f 20/23/15 26/6/15 25/18/15
f 16/26/16 31/19/16 27/15/16
f 30/16/17 32/32/17 17/28/17
