# Blender v2.78 (sub 0) OBJ File: 'player.blend'
# www.blender.org
mtllib hand.mtl
o Cube.003_Cube.012
v 0.181685 -1.040131 0.437093
v 0.286292 -1.040131 0.541699
v 0.181685 -1.144737 0.541699
v 0.181685 -1.040131 1.009677
v 0.181685 -1.144737 0.905070
v 0.286292 -1.040131 0.905070
v 0.181685 -0.676760 0.437093
v 0.181685 -0.572154 0.541699
v 0.286292 -0.676760 0.541699
v 0.181685 -0.676760 1.009677
v 0.286292 -0.676760 0.905070
v 0.181685 -0.572154 0.905070
v -0.181685 -1.040131 0.437093
v -0.286292 -1.040131 0.541699
v -0.181685 -1.144737 0.541699
v -0.181685 -1.040131 1.009677
v -0.181685 -1.144737 0.905070
v -0.286292 -1.040131 0.905070
v -0.181685 -0.676760 0.437093
v -0.181685 -0.572154 0.541699
v -0.286292 -0.676760 0.541699
v -0.181685 -0.676760 1.009677
v -0.286292 -0.676760 0.905070
v -0.181685 -0.572154 0.905070
v 0.000000 -0.676760 0.437093
v 0.000000 -0.572154 0.541699
v 0.000000 -0.676760 1.009677
v 0.000000 -0.572154 0.905070
v 0.000000 -1.040131 0.437093
v 0.000000 -1.144737 0.541699
v 0.000000 -1.040131 1.009677
v 0.000000 -1.144737 0.905070
vt 0.8629 0.8022
vt 0.7719 0.8071
vt 0.8151 0.7613
vt 0.8616 0.9380
vt 0.8892 0.8164
vt 0.9437 0.8272
vt 0.8291 0.7349
vt 0.7959 0.7387
vt 0.7491 0.8265
vt 0.7456 0.7930
vt 0.8857 0.7829
vt 0.8057 0.8745
vt 0.8197 0.8480
vt 0.8390 0.8707
vt 0.7899 0.9380
vt 0.7732 0.6714
vt 0.8449 0.6714
vt 0.9427 0.7666
vt 0.6921 0.8428
vt 0.8629 0.8022
vt 0.7719 0.8071
vt 0.8197 0.8480
vt 0.8892 0.8164
vt 0.8291 0.7349
vt 0.7959 0.7387
vt 0.8151 0.7613
vt 0.7491 0.8265
vt 0.7456 0.7930
vt 0.8857 0.7829
vt 0.8057 0.8745
vt 0.8390 0.8707
vt 0.6911 0.7822
vn 0.8756 0.3416 -0.3416
vn 0.8756 -0.3416 0.3416
vn 0.8756 -0.3416 -0.3416
vn 0.0000 0.9239 0.3827
vn 0.3416 0.8756 -0.3416
vn 0.0000 0.9239 -0.3827
vn 0.3416 -0.3416 -0.8756
vn 0.3416 -0.8756 -0.3416
vn 0.3416 -0.3416 0.8756
vn 0.3416 -0.8756 0.3416
vn 0.3416 0.3416 -0.8756
vn 0.3416 0.3416 0.8756
vn 0.8756 0.3416 0.3416
vn 0.3416 0.8756 0.3416
vn 0.0000 0.3827 0.9239
vn 0.0000 -0.9239 -0.3827
vn 0.0000 -0.3827 -0.9239
vn 0.0000 0.3827 -0.9239
vn 0.0000 -0.3827 0.9239
vn -0.8756 0.3416 -0.3416
vn -0.8756 -0.3416 0.3416
vn -0.8756 0.3416 0.3416
vn -0.3416 0.8756 -0.3416
vn -0.3416 -0.3416 -0.8756
vn -0.3416 -0.8756 -0.3416
vn -0.8756 -0.3416 -0.3416
vn -0.3416 -0.3416 0.8756
vn -0.3416 -0.8756 0.3416
vn -0.3416 0.3416 -0.8756
vn -0.3416 0.3416 0.8756
vn -0.3416 0.8756 0.3416
vn 0.0000 -0.9239 0.3827
usemtl None
s 1
f 9/1/1 6/2/2 2/3/3
f 28/4/4 8/5/5 26/6/6
f 1/7/7 2/3/3 3/8/8
f 4/9/9 5/10/10 6/2/2
f 7/11/11 8/5/5 9/1/1
f 10/12/12 11/13/13 12/14/14
f 10/12/12 28/4/4 27/15/15
f 9/1/1 12/14/14 11/13/13
f 1/7/7 9/1/1 2/3/3
f 10/12/12 6/2/2 11/13/13
f 3/8/8 6/2/2 5/10/10
f 1/7/7 30/16/16 29/17/17
f 7/11/11 29/17/17 25/18/18
f 31/19/19 5/10/10 4/9/9
f 25/18/18 8/5/5 7/11/11
f 27/15/15 4/9/9 10/12/12
f 5/10/10 30/16/16 3/8/8
f 21/20/20 18/21/21 23/22/22
f 20/23/23 28/4/4 26/6/6
f 13/24/24 15/25/25 14/26/26
f 16/27/27 18/21/21 17/28/28
f 19/29/29 21/20/20 20/23/23
f 22/30/30 24/31/31 23/22/22
f 28/4/4 22/30/30 27/15/15
f 24/31/31 21/20/20 23/22/22
f 13/24/24 21/20/20 19/29/29
f 22/30/30 18/21/21 16/27/27
f 18/21/21 15/25/25 17/28/28
f 30/16/16 13/24/24 29/17/17
f 29/17/17 19/29/29 25/18/18
f 17/28/28 31/19/19 16/27/27
f 20/23/23 25/18/18 19/29/29
f 16/27/27 27/15/15 22/30/30
f 30/16/16 17/28/28 15/25/25
f 9/1/1 11/13/13 6/2/2
f 28/4/4 12/14/14 8/5/5
f 10/12/12 12/14/14 28/4/4
f 9/1/1 8/5/5 12/14/14
f 1/7/7 7/11/11 9/1/1
f 10/12/12 4/9/9 6/2/2
f 3/8/8 2/3/3 6/2/2
f 1/7/7 3/8/8 30/16/16
f 7/11/11 1/7/7 29/17/17
f 31/19/19 32/32/32 5/10/10
f 25/18/18 26/6/6 8/5/5
f 27/15/15 31/19/19 4/9/9
f 5/10/10 32/32/32 30/16/16
f 21/20/20 14/26/26 18/21/21
f 20/23/23 24/31/31 28/4/4
f 28/4/4 24/31/31 22/30/30
f 24/31/31 20/23/23 21/20/20
f 13/24/24 14/26/26 21/20/20
f 22/30/30 23/22/22 18/21/21
f 18/21/21 14/26/26 15/25/25
f 30/16/16 15/25/25 13/24/24
f 29/17/17 13/24/24 19/29/29
f 17/28/28 32/32/32 31/19/19
f 20/23/23 26/6/6 25/18/18
f 16/27/27 31/19/19 27/15/15
f 30/16/16 32/32/32 17/28/28
